<svg width="19" height="19" viewBox="0 0 19 19" fill="none" xmlns="http://www.w3.org/2000/svg">
<path d="M12.7672 13.6023C12.573 13.4081 12.573 13.0933 12.7672 12.8991L12.8991 12.7672C13.0933 12.573 13.4081 12.573 13.6023 12.7672L16.518 15.6828C16.7122 15.877 16.7122 16.1919 16.518 16.3861L16.3861 16.518C16.1919 16.7122 15.8771 16.7122 15.6829 16.518L12.7672 13.6023Z" fill="#999999" stroke="#999999" stroke-width="0.6"/>
<path fill-rule="evenodd" clip-rule="evenodd" d="M8.90625 14.8438C12.1854 14.8438 14.8438 12.1854 14.8438 8.90625C14.8438 5.62706 12.1854 2.96875 8.90625 2.96875C5.62706 2.96875 2.96875 5.62706 2.96875 8.90625C2.96875 12.1854 5.62706 14.8438 8.90625 14.8438Z" stroke="#999999" stroke-width="1.5"/>
</svg>
