<?xml version="1.0" encoding="utf-8"?>
<!-- Generated by IcoMoon.io -->
<svg version="1.1" xmlns="http://www.w3.org/2000/svg" xmlns:xlink="http://www.w3.org/1999/xlink" width="32" height="298" viewBox="0 0 32 298">
<svg id="icon-贝壳二手及通用个人中心" width="32" height="32" viewBox="0 0 32 32" x="0" y="0">
<path fill="#3072f6" d="M15.636 7.206c2.553 0 4.63 1.977 4.63 4.408s-2.077 4.408-4.63 4.408-4.63-1.977-4.63-4.408c-0.001-2.43 2.077-4.408 4.63-4.408zM15.636 5.5c-3.5 0-6.337 2.738-6.337 6.114s2.837 6.114 6.337 6.114 6.337-2.737 6.337-6.114c-0.001-3.376-2.838-6.114-6.337-6.114v0z"></path>
<path fill="#3072f6" d="M16 17.978c2.13 0 4.131 0.689 5.637 1.94 0.906 0.753 1.568 1.66 1.946 2.646h-15.166c0.379-0.986 1.040-1.893 1.946-2.646 1.506-1.251 3.507-1.94 5.637-1.94zM16 16.271c-5.235 0-9.487 3.558-9.653 7.998h19.307c-0.167-4.44-4.419-7.998-9.654-7.998v0z"></path>
<path fill="#fff" d="M24.252 24.991c0 3.871-3.671 7.009-8.199 7.009s-8.199-3.138-8.199-7.009c0-3.871 3.671-7.009 8.199-7.009s8.199 3.138 8.199 7.009z"></path>
</svg>
<svg id="icon-贝壳二手及通用箭头" width="32" height="32" viewBox="0 0 32 32" x="0" y="38">
<path fill="#3072f6" d="M23.197 3.161c-0.385-0.378-1.008-0.378-1.392 0l-12.532 12.324c-0.385 0.379-0.385 0.991 0 1.37 0.384 0.377 1.008 0.377 1.392 0l12.532-12.326c0.384-0.377 0.384-0.992 0-1.368z"></path>
<path fill="#3072f6" d="M9.969 17.521c-0.364 0-0.707-0.14-0.965-0.394-0.259-0.255-0.402-0.595-0.402-0.957s0.143-0.702 0.402-0.958l12.532-12.324c0.518-0.508 1.412-0.508 1.93 0 0.259 0.253 0.401 0.592 0.402 0.955 0 0.363-0.143 0.704-0.402 0.96l-12.532 12.325c-0.259 0.254-0.601 0.393-0.965 0.393zM22.501 3.259c-0.162 0-0.313 0.062-0.428 0.174l-12.532 12.325c-0.112 0.11-0.174 0.257-0.174 0.412s0.062 0.301 0.174 0.412c0.228 0.223 0.627 0.223 0.856 0l12.532-12.325c0.112-0.11 0.174-0.257 0.174-0.413s-0.062-0.3-0.173-0.409c-0.116-0.114-0.267-0.176-0.429-0.176z"></path>
<path fill="#3072f6" d="M23.146 29.588c0.378-0.385 0.378-1.009 0-1.394l-12.312-12.545c-0.378-0.385-0.99-0.385-1.369 0-0.377 0.385-0.377 1.009 0 1.394l12.313 12.545c0.378 0.385 0.993 0.385 1.368 0z"></path>
<path fill="#3072f6" d="M22.463 30.259c-0.362 0-0.702-0.143-0.957-0.403l-12.313-12.546c-0.521-0.531-0.522-1.396 0-1.929 0.513-0.521 1.403-0.521 1.915-0.001l12.312 12.547c0.522 0.531 0.522 1.397 0 1.93-0.254 0.26-0.594 0.402-0.957 0.402zM10.15 15.743c-0.155 0-0.301 0.062-0.412 0.174-0.231 0.236-0.231 0.621 0 0.857l12.314 12.546c0.22 0.224 0.603 0.225 0.82 0 0.232-0.237 0.232-0.621 0-0.857l-12.31-12.546c-0.111-0.112-0.257-0.174-0.412-0.174z"></path>
</svg>
<svg id="icon-贝壳二手及通用LOGO" width="32" height="32" viewBox="0 0 32 32" x="0" y="76">
<path fill="#3072f6" d="M28.958 18l-1.508-2.059c-0.336-0.415-0.302-1.034 0.077-1.41l0.977-0.972 1.137-0.001-1.451 1.44c-0.173 0.172-0.185 0.361-0.035 0.546l1.819 2.456h-1.016zM25.641 18h-0.074c0.058-0.247 0.141-0.736 0.207-1.213l0.002-0.014-0.013 0.006c-1.141 0.549-2.737 1.022-3.932 1.206v-0.749c1.009-0.169 2.716-0.62 4.027-1.335l0.004-0.002v-0.004c0.007-0.128 0.012-0.242 0.014-0.348 0.003-0.129 0.003-0.259 0.001-0.385v-0.012l-0.011 0.005c-1.4 0.692-3.089 1.11-4.035 1.257v-0.749c0.996-0.167 2.685-0.611 3.991-1.316l0.005-0.002-0.001-0.005c-0.028-0.245-0.065-0.472-0.111-0.674l-0.002-0.009-0.009 0.004c-1.128 0.535-2.702 0.998-3.874 1.179v-0.753c0.906-0.152 2.377-0.508 3.593-1.159v0h-2.122v-0.708h5.083v0.708h-2.051l0.004 0.011c0.284 0.695 0.365 1.813 0.347 2.627-0.022 0.966-0.159 1.884-0.271 2.434h-0.772zM29.079 12.929v-1.329h-6.468v1.328h-0.779v-1.565c0-0.26 0.211-0.471 0.471-0.471h3.043v-0.599h0.91v0.599h3.132c0.26 0 0.471 0.211 0.471 0.471v1.565h-0.78z"></path>
<path fill="#3072f6" d="M15.999 18c-0.753 0-0.785-0.273-0.785-0.891v-3.99h-1.33v1.384h0.82v0.707h-0.82v2.082h0.82v0.708h-0.811c-0.69 0-0.801-0.218-0.801-0.741v-2.049h-0.882v-0.707h0.882v-1.384h-0.943l0.628-2.826h0.759l-0.144 0.669h1.313v0.708h-1.47l-0.164 0.741h2.497c0.196 0 0.424 0.154 0.424 0.354v4.527h2.354v-1.203h-1.816v-0.708h1.816v-1.202h-1.467c-0.108 0-0.209-0.048-0.276-0.133-0.068-0.084-0.093-0.193-0.069-0.299l0.468-2.078h-1.439c-0.156 0-0.295-0.104-0.339-0.254l-0.331-1.123h0.804l0.2 0.669h1.264l0.148-0.669h0.782l-0.15 0.669h2.704v0.708h-2.864l-0.406 1.802h0.971v-1.16h0.863v1.16h1.436v0.708h-1.436v1.202h1.436v0.708h-1.436v1.203h1.436v0.708h-4.646z"></path>
<path fill="#666" d="M2.095 22.38l-0.095-0.241c0.006-0.006 0.011-0.011 0.017-0.017 0.103-0.086 0.178-0.149 0.224-0.189v-0.645h-0.224v-0.224h0.447v0.843c0.097 0.161 0.258 0.238 0.482 0.232 0.31 0.006 0.694 0.006 1.153 0-0.034 0.069-0.060 0.138-0.077 0.207-0.522 0-0.898-0.003-1.127-0.009-0.235-0.006-0.413-0.080-0.534-0.224-0.091 0.069-0.18 0.158-0.266 0.267zM2.361 20.874c-0.046-0.080-0.12-0.198-0.224-0.353-0.017-0.029-0.032-0.049-0.043-0.060l0.189-0.103c0.103 0.138 0.195 0.27 0.275 0.396l-0.197 0.12zM2.637 20.788v-0.198h0.344c0.046-0.092 0.080-0.181 0.103-0.267l0.25 0.034c-0.034 0.075-0.069 0.152-0.103 0.232h0.809v0.198h-0.913c-0.063 0.138-0.129 0.267-0.198 0.387h0.344v-0.284h0.224v0.284h0.482v0.198h-0.482v0.25h0.568v0.198h-0.568v0.232h-0.223v-0.232h-0.68v-0.198h0.68v-0.25h-0.585v-0.207c0.011-0.029 0.034-0.075 0.069-0.138 0.057-0.103 0.1-0.184 0.129-0.241h-0.25z"></path>
<path fill="#666" d="M5.736 20.926v-0.207h0.224v-0.379h0.215v0.379h0.172v0.207h-0.172v0.379l0.181-0.043c0 0.080 0 0.155 0 0.224l-0.181 0.052v0.594c0.006 0.161-0.066 0.241-0.215 0.241-0.080 0.006-0.155 0.009-0.224 0.009-0.006-0.046-0.014-0.106-0.026-0.181-0.006-0.023-0.009-0.037-0.009-0.043 0.011 0 0.029 0 0.052 0 0.052 0.006 0.089 0.006 0.112 0 0.069 0.006 0.1-0.023 0.095-0.086v-0.473c-0.023 0.006-0.060 0.014-0.112 0.026-0.052 0.017-0.092 0.029-0.121 0.034l-0.026-0.241c0.011 0 0.029-0.003 0.052-0.009 0.046-0.011 0.115-0.029 0.207-0.052v-0.43h-0.224zM6.373 21.657v-0.189h0.37c0.034-0.057 0.069-0.12 0.103-0.189l0.232 0.034c-0.012 0.034-0.034 0.077-0.069 0.129-0.006 0.012-0.012 0.020-0.017 0.026h0.783v0.189h-0.241c-0.075 0.161-0.152 0.281-0.232 0.361 0.029 0.012 0.072 0.029 0.129 0.052 0.063 0.029 0.175 0.072 0.336 0.129l-0.121 0.189c-0.229-0.109-0.404-0.189-0.525-0.241-0.172 0.103-0.422 0.186-0.749 0.25-0.006-0.012-0.017-0.034-0.034-0.069-0.012-0.017-0.037-0.060-0.077-0.129 0.017 0 0.037-0.003 0.060-0.009 0.281-0.046 0.465-0.092 0.551-0.138l-0.404-0.172c0.057-0.069 0.112-0.143 0.164-0.224h-0.259zM6.373 21.235v-0.181h0.379c-0.017-0.029-0.049-0.075-0.095-0.138-0.029-0.046-0.049-0.077-0.060-0.095l0.207-0.060c0.040 0.052 0.106 0.146 0.198 0.284l-0.026 0.009h0.198c0.011-0.011 0.026-0.034 0.043-0.069 0.063-0.103 0.112-0.178 0.146-0.224l0.215 0.060c-0.017 0.023-0.043 0.060-0.077 0.112-0.040 0.052-0.069 0.092-0.086 0.12h0.37v0.181h-1.412zM6.441 20.745v-0.181h0.551c-0.012-0.029-0.032-0.072-0.060-0.129-0.012-0.034-0.020-0.057-0.026-0.069l0.25-0.034c0.034 0.075 0.066 0.152 0.095 0.232h0.465v0.181h-1.275zM6.76 21.803l0.318 0.129c0.086-0.069 0.155-0.161 0.207-0.275h-0.422c-0.034 0.058-0.069 0.106-0.103 0.146z"></path>
<path fill="#666" d="M9.411 21.554v-0.189h0.293l0.077-0.516h1.463c0 0.040-0.003 0.098-0.009 0.172-0.006 0.155-0.012 0.27-0.017 0.344h0.275v0.189h-0.283c0 0.12-0.006 0.23-0.017 0.327h0.232v0.189h-0.241c-0.017 0.207-0.138 0.31-0.361 0.31h-0.379c-0.023-0.103-0.040-0.169-0.052-0.198 0.029 0.006 0.146 0.009 0.353 0.009 0.12 0.006 0.186-0.034 0.198-0.12h-1.351l0.077-0.516h-0.258zM9.532 21.089c-0.035-0.069-0.072-0.138-0.112-0.206 0.195-0.149 0.35-0.336 0.465-0.559l0.25 0.017c-0.023 0.052-0.049 0.1-0.077 0.146h1.386v0.189h-1.517c-0.091 0.132-0.223 0.27-0.395 0.413zM10.47 21.881c-0.012-0.011-0.029-0.026-0.052-0.043-0.040-0.034-0.109-0.086-0.207-0.155l0.12-0.129h-0.43l-0.051 0.327h0.62zM9.988 21.037l-0.052 0.327h0.577c-0.046-0.034-0.115-0.086-0.207-0.155-0.029-0.017-0.049-0.031-0.060-0.043l0.112-0.129h-0.37zM10.96 21.881l0.017-0.327h-0.611l0.284 0.207-0.112 0.12h0.422zM11.003 21.037h-0.602c0.097 0.057 0.189 0.12 0.275 0.189l-0.112 0.138h0.422l0.017-0.327z"></path>
<path fill="#666" d="M15.049 21.408c-0.384-0.207-0.68-0.459-0.886-0.757-0.218 0.31-0.522 0.577-0.912 0.8-0.006-0.011-0.020-0.031-0.043-0.060-0.052-0.080-0.086-0.135-0.103-0.164 0.465-0.252 0.789-0.551 0.972-0.895l0.275 0.026c-0.017 0.034-0.037 0.066-0.060 0.095 0.218 0.304 0.522 0.548 0.912 0.732-0.041 0.045-0.092 0.119-0.155 0.223zM14.025 22.397v-1.274h0.258v1.274h-0.258z"></path>
<path fill="#666" d="M17.184 21.089v-0.172h1.343v0.172h-0.508c-0.069 0.052-0.138 0.095-0.207 0.129 0.069 0.086 0.126 0.166 0.172 0.241 0.258-0.12 0.465-0.224 0.62-0.31l0.12 0.181c-0.069 0.034-0.175 0.086-0.318 0.155 0.011-0.006-0.003 0-0.043 0.017 0.097 0.275 0.272 0.468 0.525 0.577-0.052 0.052-0.1 0.112-0.146 0.181-0.275-0.149-0.462-0.373-0.559-0.671l-0.12 0.052c0.034 0.103 0.052 0.215 0.052 0.336 0.006 0.264-0.106 0.396-0.336 0.396-0.086 0-0.184 0-0.293 0-0.006-0.012-0.012-0.032-0.017-0.060-0.012-0.057-0.023-0.103-0.034-0.138 0.092 0 0.175 0 0.25 0 0.149 0.011 0.218-0.054 0.207-0.198 0-0.046-0.003-0.089-0.009-0.129-0.258 0.201-0.58 0.361-0.964 0.482-0.006-0.017-0.017-0.040-0.034-0.069-0.029-0.057-0.052-0.095-0.069-0.112 0.39-0.097 0.729-0.261 1.015-0.491-0.012-0.034-0.026-0.069-0.043-0.103-0.241 0.166-0.525 0.301-0.852 0.405-0.012-0.023-0.029-0.055-0.052-0.095-0.023-0.046-0.040-0.078-0.052-0.095 0.361-0.092 0.651-0.212 0.869-0.361-0.006-0.011-0.017-0.026-0.034-0.043-0.012-0.023-0.023-0.037-0.034-0.043-0.218 0.109-0.45 0.195-0.697 0.258-0.029-0.063-0.060-0.126-0.095-0.189 0.338-0.057 0.628-0.158 0.869-0.301h-0.526zM16.874 20.986v-0.43h0.895c-0.006-0.017-0.014-0.040-0.026-0.069-0.023-0.063-0.040-0.109-0.052-0.138l0.258-0.034c0.006 0.017 0.017 0.049 0.034 0.095 0.023 0.063 0.040 0.112 0.052 0.146h0.792v0.43h-0.224v-0.241h-1.497v0.241h-0.232z"></path>
<path fill="#666" d="M20.592 22.363v-1.687h0.232c0.017-0.063 0.040-0.149 0.069-0.258 0.006-0.034 0.011-0.060 0.017-0.077l0.241 0.034c-0.023 0.103-0.052 0.204-0.086 0.301h0.37v1.678h-0.215v-0.155h-0.405v0.164h-0.223zM20.816 20.891v0.447h0.405v-0.447h-0.405zM20.816 21.554v0.447h0.405v-0.447h-0.405zM21.754 22.354c-0.012-0.086-0.026-0.158-0.043-0.215 0.034 0 0.086 0 0.155 0 0.075 0.006 0.132 0.009 0.172 0.009 0.155 0 0.232-0.075 0.232-0.224 0.006-0.092 0.011-0.287 0.017-0.585 0.006-0.212 0.009-0.361 0.009-0.447h-0.473c-0.052 0.115-0.103 0.221-0.155 0.318-0.012-0.006-0.029-0.017-0.052-0.034-0.029-0.017-0.077-0.043-0.146-0.077 0.132-0.241 0.235-0.493 0.31-0.757l0.232 0.052c-0.006 0.023-0.017 0.055-0.034 0.095-0.023 0.080-0.046 0.143-0.069 0.189h0.62c-0.012 0.625-0.023 1.056-0.034 1.291 0.006 0.258-0.118 0.384-0.37 0.379-0.116 0.003-0.239 0.006-0.371 0.006zM21.935 21.778c-0.098-0.149-0.204-0.301-0.318-0.456l0.181-0.112c0.103 0.12 0.215 0.267 0.336 0.439l-0.199 0.129z"></path>
<path fill="#666" d="M26.152 22.389c-0.161-0.103-0.31-0.221-0.447-0.353-0.103 0.103-0.261 0.229-0.473 0.379-0.052-0.086-0.103-0.158-0.155-0.215 0.006 0 0.009-0.003 0.009-0.009 0.011-0.006 0.023-0.009 0.034-0.009h-0.611v0.138h-0.215v-0.99h0.327v-0.387h-0.404v-0.215h0.404v-0.388h0.215v0.387h0.379v0.215h-0.379v0.387h0.318v0.826c0.172-0.098 0.31-0.201 0.413-0.31-0.098-0.161-0.172-0.361-0.224-0.602-0.006 0.012-0.014 0.029-0.026 0.052-0.029 0.057-0.055 0.098-0.077 0.12-0.012-0.017-0.034-0.052-0.069-0.103-0.029-0.046-0.049-0.078-0.060-0.095 0.166-0.247 0.295-0.542 0.387-0.886l0.232 0.026c-0.034 0.109-0.072 0.221-0.112 0.336h0.671v0.215h-0.155c-0.040 0.39-0.135 0.703-0.284 0.938 0.115 0.126 0.267 0.235 0.456 0.327-0.006 0.011-0.017 0.029-0.034 0.052-0.051 0.063-0.091 0.118-0.12 0.164zM24.509 21.528v0.473h0.43v-0.473h-0.43zM25.705 21.649c0.109-0.178 0.181-0.425 0.215-0.74h-0.396l-0.017 0.043c0.034 0.275 0.1 0.507 0.198 0.697z"></path>
<path fill="#666" d="M27.926 20.659v-0.155h0.912v-0.172h0.232v0.172h0.921v0.155h-0.921v0.12h0.689v0.413h-0.689v0.121h0.732v0.275h0.198v0.155h-0.198v0.396h-0.215v-0.112h-0.516v0.043c0.011 0.195-0.083 0.293-0.284 0.293-0.063 0.006-0.175 0.009-0.336 0.009-0.012-0.075-0.026-0.138-0.043-0.189 0.097 0 0.192 0 0.284 0 0.109 0.011 0.158-0.034 0.146-0.138v-0.017h-0.792v-0.138h0.792v-0.146h-0.912v-0.155h0.912v-0.138h-0.783v-0.138h0.783v-0.121h-0.688v-0.413h0.689v-0.12h-0.913zM28.373 20.917v0.138h0.465v-0.138h-0.465zM29.544 20.917h-0.473v0.138h0.473v-0.138zM29.587 21.451h-0.516v0.138h0.516v-0.138zM29.071 21.743v0.146h0.516v-0.146h-0.516z"></path>
<path fill="#3072f6" d="M10.242 15.449c0 0.376-0.305 0.681-0.681 0.681s-0.681-0.305-0.681-0.681c0-0.376 0.305-0.681 0.681-0.681s0.681 0.305 0.681 0.681z"></path>
<path fill="#3072f6" d="M9.568 18.025v0l-0.008 0.001z"></path>
<path fill="#3072f6" d="M9.817 11.987l-2.929-2.105c-0.122-0.089-0.407-0.296-0.767-0.296-0.362 0-0.644 0.206-0.764 0.294l-0.021 0.014-2.896 2.082c-0.132 0.095-0.44 0.369-0.44 0.847v4.167c0 0.571 0.464 1.035 1.035 1.035l6.532-0.001c0.030 0 0.060-0.003 0.089-0.008 0.33-0.047 0.584-0.33 0.584-0.673 0-0.376-0.305-0.681-0.681-0.681-0.008 0-0.015 0.001-0.023 0.001 0 0 0 0 0 0h-5.929c-0.023 0-0.045-0.002-0.066-0.006-0.087-0.020-0.155-0.089-0.174-0.176-0.003-0.015-0.005-0.031-0.005-0.048 0-0.005 0-0.010 0-0.016v-3.313c0-0.119 0.056-0.181 0.152-0.25 0.071-0.050 0.782-0.552 2.304-1.626l0.137-0.097c0 0 0.001 0 0.001-0.001l0.011-0.008 0.001-0.001 0.007-0.005c-0.001 0.001-0.003 0.002-0.004 0.003l0.002-0.001c0 0 0.003-0.002 0.008-0.006 0.002-0.002 0.005-0.003 0.008-0.005l-0.013 0.010c0.042-0.027 0.093-0.044 0.145-0.044 0.056 0 0.107 0.018 0.15 0.047v0l0.006 0.004c0 0 0.001 0.001 0.004 0.003 0 0 0 0 0 0v0c0.085 0.060 1.368 0.968 2.059 1.456l0.427 0.302c0.051 0.036 0.112 0.101 0.112 0.206v0.466c0 0.375 0.305 0.681 0.681 0.681s0.681-0.305 0.681-0.681v-0.736c0.001-0.33-0.154-0.635-0.424-0.834z"></path>
<path fill="#3072f6" d="M5.956 11.132v0z"></path>
</svg>
<svg id="icon-贝壳海外个人中心" width="32" height="32" viewBox="0 0 32 32" x="0" y="114">
<path fill="#3478f1" d="M15.636 7.206c2.553 0 4.63 1.977 4.63 4.408s-2.077 4.408-4.63 4.408-4.63-1.977-4.63-4.408c-0.001-2.43 2.077-4.408 4.63-4.408zM15.636 5.5c-3.5 0-6.337 2.738-6.337 6.114s2.837 6.114 6.337 6.114 6.337-2.737 6.337-6.114c-0.001-3.376-2.838-6.114-6.337-6.114v0z"></path>
<path fill="#3478f1" d="M16 17.978c2.13 0 4.131 0.689 5.637 1.94 0.906 0.753 1.568 1.66 1.946 2.646h-15.166c0.379-0.986 1.040-1.893 1.946-2.646 1.506-1.251 3.507-1.94 5.637-1.94zM16 16.271c-5.235 0-9.487 3.558-9.653 7.998h19.307c-0.167-4.44-4.419-7.998-9.654-7.998v0z"></path>
<path fill="#fff" d="M24.252 24.991c0 3.871-3.671 7.009-8.199 7.009s-8.199-3.138-8.199-7.009c0-3.871 3.671-7.009 8.199-7.009s8.199 3.138 8.199 7.009z"></path>
</svg>
<svg id="icon-贝壳海外箭头" width="32" height="32" viewBox="0 0 32 32" x="0" y="152">
<path fill="#3478f1" d="M23.197 3.161c-0.385-0.378-1.008-0.378-1.392 0l-12.532 12.324c-0.385 0.379-0.385 0.991 0 1.37 0.384 0.377 1.008 0.377 1.392 0l12.532-12.326c0.384-0.377 0.384-0.992 0-1.368z"></path>
<path fill="#3478f1" d="M9.969 17.521c-0.364 0-0.707-0.14-0.965-0.394-0.259-0.255-0.402-0.595-0.402-0.957s0.143-0.702 0.402-0.958l12.532-12.324c0.518-0.508 1.412-0.508 1.93 0 0.259 0.253 0.401 0.592 0.402 0.955 0 0.363-0.143 0.704-0.402 0.96l-12.532 12.325c-0.259 0.254-0.601 0.393-0.965 0.393zM22.501 3.259c-0.162 0-0.313 0.062-0.428 0.174l-12.532 12.325c-0.112 0.11-0.174 0.257-0.174 0.412s0.062 0.301 0.174 0.412c0.228 0.223 0.627 0.223 0.856 0l12.532-12.325c0.112-0.11 0.174-0.257 0.174-0.413s-0.062-0.3-0.173-0.409c-0.116-0.114-0.267-0.176-0.429-0.176z"></path>
<path fill="#3478f1" d="M23.146 29.588c0.378-0.385 0.378-1.009 0-1.394l-12.312-12.545c-0.378-0.385-0.99-0.385-1.369 0-0.377 0.385-0.377 1.009 0 1.394l12.313 12.545c0.378 0.385 0.993 0.385 1.368 0z"></path>
<path fill="#3478f1" d="M22.463 30.259c-0.362 0-0.702-0.143-0.957-0.403l-12.313-12.546c-0.521-0.531-0.522-1.396 0-1.929 0.513-0.521 1.403-0.521 1.915-0.001l12.312 12.547c0.522 0.531 0.522 1.397 0 1.93-0.254 0.26-0.594 0.402-0.957 0.402zM10.15 15.743c-0.155 0-0.301 0.062-0.412 0.174-0.231 0.236-0.231 0.621 0 0.857l12.314 12.546c0.22 0.224 0.603 0.225 0.82 0 0.232-0.237 0.232-0.621 0-0.857l-12.31-12.546c-0.111-0.112-0.257-0.174-0.412-0.174z"></path>
</svg>
<svg id="icon-贝壳海外LOGO" width="32" height="32" viewBox="0 0 32 32" x="0" y="190">
<path fill="#3478f1" d="M6.992 16.995c0 0.228-0.185 0.413-0.413 0.413s-0.413-0.185-0.413-0.413c0-0.228 0.185-0.413 0.413-0.413s0.413 0.185 0.413 0.413z"></path>
<path fill="#3478f1" d="M6.583 18.556v0h-0.004z"></path>
<path fill="#3478f1" d="M6.734 14.899l-1.774-1.276c-0.074-0.054-0.246-0.179-0.465-0.179s-0.39 0.125-0.463 0.178l-0.012 0.009-1.754 1.261c-0.080 0.058-0.266 0.223-0.266 0.513v2.524c0 0.346 0.281 0.627 0.627 0.627h3.956c0.018 0 0.036-0.002 0.054-0.005 0.2-0.029 0.354-0.2 0.354-0.408 0-0.228-0.185-0.413-0.413-0.413-0.005 0-0.009 0.001-0.014 0.001 0 0 0 0 0 0h-3.591c-0.014 0-0.027-0.001-0.040-0.004-0.053-0.012-0.094-0.054-0.106-0.107-0.002-0.009-0.003-0.019-0.003-0.029 0-0.003 0-0.006 0-0.009v-2.007c0-0.072 0.034-0.11 0.092-0.151 0.043-0.030 0.473-0.334 1.396-0.985l0.083-0.059c0 0 0 0 0 0l0.007-0.005 0.001-0.001 0.004-0.003c-0.001 0.001-0.002 0.001-0.002 0.002l0.001-0.001c0 0 0.002-0.001 0.005-0.003 0.001-0.001 0.003-0.002 0.005-0.003l-0.008 0.006c0.025-0.016 0.056-0.026 0.088-0.026 0.034 0 0.065 0.011 0.091 0.029v0l0.003 0.003c0 0 0.001 0.001 0.003 0.002 0 0 0 0 0 0v0c0.052 0.037 0.829 0.586 1.247 0.882l0.259 0.183c0.031 0.022 0.068 0.061 0.068 0.125v0.282c0 0.227 0.185 0.412 0.412 0.412s0.412-0.185 0.412-0.412v-0.446c0.001-0.203-0.093-0.387-0.257-0.507z"></path>
<path fill="#3478f1" d="M4.396 14.381v0z"></path>
<path fill="#3478f1" d="M18.407 18.556l-0.915-1.25c-0.204-0.252-0.183-0.628 0.047-0.856l0.593-0.59h0.69l-0.88 0.874c-0.105 0.104-0.112 0.219-0.021 0.331l1.103 1.49h-0.617zM16.393 18.556h-0.045c0.035-0.15 0.086-0.447 0.126-0.736l0.001-0.009-0.008 0.004c-0.692 0.333-1.661 0.62-2.386 0.732v-0.455c0.612-0.103 1.648-0.376 2.444-0.81l0.002-0.001v-0.003c0.004-0.078 0.007-0.147 0.009-0.211 0.002-0.079 0.002-0.157 0.001-0.234v-0.007l-0.007 0.003c-0.85 0.42-1.875 0.673-2.449 0.763v-0.455c0.604-0.101 1.63-0.371 2.422-0.799l0.003-0.001v-0.003c-0.017-0.149-0.039-0.287-0.067-0.409l-0.001-0.006-0.005 0.002c-0.685 0.325-1.64 0.606-2.351 0.715v-0.455c0.55-0.092 1.443-0.308 2.181-0.703v0h-1.288v-0.429h3.085v0.429h-1.245l0.003 0.006c0.172 0.422 0.222 1.1 0.211 1.595-0.014 0.586-0.097 1.144-0.164 1.477h-0.472zM18.48 15.478v-0.806h-3.925v0.806h-0.473v-0.95c0-0.158 0.128-0.286 0.286-0.286h1.847v-0.364h0.554v0.364h1.901c0.158 0 0.286 0.128 0.286 0.286v0.95h-0.476z"></path>
<path fill="#3478f1" d="M10.543 18.556c-0.457 0-0.476-0.166-0.476-0.541v-2.422h-0.807v0.84h0.498v0.429h-0.498v1.264h0.498v0.43h-0.493c-0.419 0-0.486-0.133-0.486-0.45v-1.243h-0.536v-0.429h0.535v-0.84h-0.572l0.381-1.715h0.461l-0.088 0.406h0.797v0.429h-0.892l-0.099 0.45h1.516c0.119 0 0.257 0.094 0.257 0.215v2.748h1.429v-0.73h-1.102v-0.43h1.102v-0.73h-0.89c-0.066 0-0.127-0.029-0.168-0.081-0.041-0.051-0.056-0.117-0.042-0.181l0.284-1.261h-0.873c-0.095 0-0.179-0.063-0.206-0.154l-0.201-0.682h0.488l0.122 0.406h0.767l0.090-0.406h0.474l-0.091 0.406h1.641v0.429h-1.738l-0.246 1.093h0.589v-0.704h0.524v0.704h0.871v0.429h-0.871v0.73h0.871v0.43h-0.871v0.73h0.871v0.43h-2.82z"></path>
<path fill="#3478f1" d="M23.803 15.513c0.004 0 0.007 0 0.010 0 0 0.003 0 0.007 0 0.010v2.56c0 0.004 0 0.007 0 0.010-0.003 0-0.007 0-0.010 0h-2.329c-0.004 0-0.007 0-0.010 0 0-0.003 0-0.007 0-0.010v-2.56c0-0.004 0-0.007 0-0.010 0.003 0 0.007 0 0.010 0h2.329zM23.803 15.055h-2.329c-0.289 0-0.469 0.18-0.469 0.469v2.56c0 0.289 0.18 0.469 0.469 0.469h2.329c0.289 0 0.469-0.18 0.469-0.469v-2.56c0-0.289-0.181-0.469-0.469-0.469v0z"></path>
<path fill="#3478f1" d="M20.741 16.563h3.794v0.458h-3.794v-0.458z"></path>
<path fill="#3478f1" d="M23.158 16.878l-1.513-1.513 0.419-0.229 1.575 1.575z"></path>
<path fill="#3478f1" d="M23.315 18.553l-1.67-1.67 0.379-0.27 1.615 1.616z"></path>
<path fill="#3478f1" d="M20.108 18.546h-0.501l0.437-1.132c0.078-0.202 0.203-0.449-0.007-0.755l-0.625-0.967h0.593l0.454 0.76c0.197 0.305 0.21 0.646 0.079 0.984l-0.43 1.11z"></path>
<path fill="#3478f1" d="M20.038 15.196l-0.626-0.964h0.594l0.625 0.964z"></path>
<path fill="#3478f1" d="M21.306 13.879h-0.561v0.591c0 0.16 0.13 0.29 0.29 0.29h3.504v-0.438h-3.233v-0.443z"></path>
<path fill="#3478f1" d="M28.126 14.030h0.533v4.523h-0.533v-4.523z"></path>
<path fill="#3478f1" d="M25.317 16.387h-0.583c0 0 0.692-0.928 0.692-2.504h0.539c0 1.568-0.648 2.504-0.648 2.504z"></path>
<path fill="#3478f1" d="M25.498 18.553h-0.744c0 0 0.076 0 2.064-2.163 0.294-0.32 0.278-0.398 0.278-0.852 0-0.41 0-0.404 0-0.856h-1.388v-0.438h1.939v0.356c0 0.457 0 0.513 0 0.939 0 0.63-0.056 0.819-0.38 1.171-1.692 1.843-1.769 1.843-1.769 1.843z"></path>
<path fill="#3478f1" d="M28.537 15.346l-0.362 0.325 1.137 1.132h0.688z"></path>
<path fill="#3478f1" d="M25.744 15.098l-0.366 0.363 1.542 1.458 0.278-0.45z"></path>
</svg>
<svg id="icon-贝壳灰色箭头" width="32" height="32" viewBox="0 0 32 32" x="0" y="228">
<path fill="#9399a5" d="M15.811 27.195l-14.861-14.777 2.902-2.918 11.947 11.879 11.843-11.873 2.914 2.906z"></path>
</svg>
<svg id="icon-贝壳首页个人中心" width="32" height="32" viewBox="0 0 32 32" x="0" y="266">
<path fill="#fff" d="M15.594 8.248c2.553 0 4.63 1.977 4.63 4.408s-2.077 4.408-4.63 4.408-4.63-1.977-4.63-4.408c-0.001-2.43 2.077-4.408 4.63-4.408zM15.594 6.542c-3.5 0-6.337 2.738-6.337 6.114 0 3.377 2.837 6.114 6.337 6.114s6.337-2.737 6.337-6.114c-0.001-3.376-2.838-6.114-6.337-6.114v0z"></path>
<path fill="#fff" d="M10.263 21.014c0.021-0.018 0.038-0.037 0.059-0.055 0.101-0.084 0.209-0.158 0.314-0.237 0.055-0.041 0.108-0.085 0.165-0.124 0.18-0.127 0.367-0.246 0.558-0.359 0.015-0.009 0.030-0.019 0.045-0.028 0.213-0.124 0.433-0.239 0.658-0.344 0.002-0.001 0.003-0.002 0.005-0.002 0.224-0.104 0.453-0.199 0.687-0.285 0.010-0.004 0.020-0.008 0.031-0.012 0.214-0.077 0.432-0.145 0.653-0.206 0.037-0.010 0.072-0.023 0.11-0.033 0.194-0.051 0.391-0.092 0.589-0.13 0.067-0.013 0.133-0.030 0.201-0.042 0.175-0.030 0.353-0.050 0.531-0.070 0.092-0.010 0.182-0.026 0.275-0.034 0.219-0.018 0.441-0.025 0.664-0.029 0.048-0.001 0.094-0.006 0.142-0.006 0.002 0 0.003 0 0.005 0s0.004 0 0.005 0c2.13 0 4.131 0.689 5.637 1.94 0.348 0.289 0.648 0.607 0.921 0.937 0.076 0.089 0.153 0.176 0.224 0.268 0.023 0.030 0.043 0.061 0.065 0.092 0.67 0.9 1.113 1.937 1.246 3.055h1.561c-0.167-4.44-4.419-7.998-9.654-7.998s-9.487 3.558-9.653 7.998h1.539c0.198-1.678 1.088-3.18 2.417-4.296z"></path>
</svg>
</svg>
