<?xml version="1.0" encoding="utf-8"?>
<!-- Generated by IcoMoon.io -->
<svg version="1.1" xmlns="http://www.w3.org/2000/svg" xmlns:xlink="http://www.w3.org/1999/xlink" width="150" height="260" viewBox="0 0 150 260">
  <svg width="16px" height="16px" viewBox="0 0 16 16" version="1.1" x="0" y="0">
    <g id="11" stroke="none" stroke-width="1" fill="none" fill-rule="evenodd">
        <g id="Artboard" transform="translate(-402.000000, -223.000000)">
            <g id="icon/Cell/Cell-进入" transform="translate(402.000000, 223.000000)">
                <g id="icon/进入" transform="translate(8.000000, 8.000000) rotate(-90.000000) translate(-8.000000, -8.000000) ">
                    <mask id="mask-2" fill="white">
                        <use xlink:href="#path-1"></use>
                    </mask>
                    <g id="Mask" transform="translate(8.000000, 8.000000) rotate(-450.000000) translate(-8.000000, -8.000000) "></g>
                    <g id="Grid" mask="url(#mask-2)"></g>
                    <g id="Group" mask="url(#mask-2)">
                        <g transform="translate(0.500000, 7.000000)" id="Group-2">
                            <g transform="translate(0.500000, 0.000000)">
                                <g id="Group-3" transform="translate(0.500000, 0.000000)" fill="#CCCCCC">
                                    <rect id="Rectangle-2" transform="translate(3.848350, 4.151650) rotate(-135.000000) translate(-3.848350, -4.151650) " x="-0.651650429" y="3.40165043" width="9" height="1.5" rx="0.75"></rect>
                                    <rect id="Rectangle-2-Copy" transform="translate(9.151650, 4.151650) rotate(-405.000000) translate(-9.151650, -4.151650) " x="4.65165043" y="3.40165043" width="9" height="1.5" rx="0.75"></rect>
                                </g>
                            </g>
                        </g>
                    </g>
                </g>
            </g>
        </g>
    </g>
  </svg>
  <svg width="12px" height="12px" viewBox="0 0 12 12" version="1.1" x="0" y="20">
      <g id="11" stroke="none" stroke-width="1" fill="none" fill-rule="evenodd">
          <g id="发布房源/有1个已添加的房产" transform="translate(-255.000000, -191.000000)" fill="#FFFFFF">
              <g id="矩形" transform="translate(24.000000, 155.000000)">
                  <g id="Group-6" transform="translate(223.000000, 30.000000)">
                      <path d="M13,11 L13,7 C13,6.44771525 13.4477153,6 14,6 C14.5522847,6 15,6.44771525 15,7 L15,11 L19,11 C19.5522847,11 20,11.4477153 20,12 C20,12.5522847 19.5522847,13 19,13 L15,13 L15,17 C15,17.5522847 14.5522847,18 14,18 C13.4477153,18 13,17.5522847 13,17 L13,13 L9,13 C8.44771525,13 8,12.5522847 8,12 C8,11.4477153 8.44771525,11 9,11 L13,11 Z" id="Combined-Shape"></path>
                  </g>
              </g>
          </g>
      </g>
  </svg>
  <svg width="20px" height="20px" viewBox="0 0 20 20" version="1.1" x="0" y="40">
      <g id="Page-1" stroke="none" stroke-width="1" fill="none" fill-rule="evenodd">
          <g id="Artboard" transform="translate(-559.000000, -275.000000)">
              <g id="icon/Cell/删除" transform="translate(559.000000, 275.000000)">
                  <g id="icon/s/close">
                      <g id="关闭">
                          <path d="M10,0 C4.47714286,0 0,4.47714286 0,10 C0,15.5228571 4.47714286,20 10,20 C15.5228571,20 20,15.5228571 20,10 C20,4.47714286 15.5228571,0 10,0" id="Combined-Shape" fill="#CCCCCC"></path>
                          <path d="M11,9 L15,9 C15.5522847,9 16,9.44771525 16,10 C16,10.5522847 15.5522847,11 15,11 L11,11 L11,15 C11,15.5522847 10.5522847,16 10,16 C9.44771525,16 9,15.5522847 9,15 L9,11 L5,11 C4.44771525,11 4,10.5522847 4,10 C4,9.44771525 4.44771525,9 5,9 L9,9 L9,5 C9,4.44771525 9.44771525,4 10,4 C10.5522847,4 11,4.44771525 11,5 L11,9 Z" id="Combined-Shape" fill="#FFFFFF" transform="translate(10.000000, 10.000000) rotate(45.000000) translate(-10.000000, -10.000000) "></path>
                      </g>
                      <rect id="Rectangle" fill="#CCCCCC" opacity="0" x="0" y="0" width="20" height="20"></rect>
                  </g>
              </g>
          </g>
      </g>
  </svg>
  <svg width="20px" height="20px" viewBox="0 0 20 20" version="1.1" y="70">
      <g id="Page-1" stroke="none" stroke-width="1" fill="none" fill-rule="evenodd">
          <g id="Artboard" transform="translate(-515.000000, -328.000000)">
              <g id="icon/Cell/删除" transform="translate(515.000000, 328.000000)">
                  <g id="icon/s/close">
                      <g id="关闭" fill="#3072F6">
                          <path d="M10,0 C4.47714286,0 0,4.47714286 0,10 C0,15.5228571 4.47714286,20 10,20 C15.5228571,20 20,15.5228571 20,10 C20,4.47714286 15.5228571,0 10,0" id="Combined-Shape"></path>
                      </g>
                      <rect id="Rectangle" fill="#CCCCCC" opacity="0" x="0" y="0" width="20" height="20"></rect>
                      <circle id="Oval" fill="#FFFFFF" cx="5.5" cy="10" r="1.5"></circle>
                      <circle id="Oval-Copy" fill="#FFFFFF" cx="10" cy="10" r="1.5"></circle>
                      <circle id="Oval-Copy-2" fill="#FFFFFF" cx="14.5" cy="10" r="1.5"></circle>
                  </g>
              </g>
          </g>
      </g>
  </svg>
  <svg width="20px" height="20px" viewBox="0 0 20 20" version="1.1" y="100">
      <g id="Page-1" stroke="none" stroke-width="1" fill="none" fill-rule="evenodd">
          <g id="Artboard" transform="translate(-515.000000, -275.000000)">
              <g id="Group-8" transform="translate(515.000000, 275.000000)">
                  <circle id="Oval" fill="#3072F6" cx="10" cy="10" r="10"></circle>
                  <polyline id="Path" stroke="#FFFFFF" stroke-width="2" stroke-linecap="round" stroke-linejoin="round" points="5.625 10 8.75 13.75 15 6.875"></polyline>
              </g>
          </g>
      </g>
  </svg>
  <svg width="20px" height="20px" viewBox="0 0 20 20" version="1.1" y="130">
      <g id="Page-1" stroke="none" stroke-width="1" fill="none" fill-rule="evenodd">
          <g id="Artboard" transform="translate(-559.000000, -328.000000)" fill="#FFFFFF" stroke="#CCCCCC">
              <circle id="icon/未选中" cx="569" cy="338" r="9.5"></circle>
          </g>
      </g>
  </svg>
  <svg width="12px" height="10px" viewBox="0 0 12 10" version="1.1" y="160">
      <g id="Page-1" stroke="none" stroke-width="1" fill="none" fill-rule="evenodd" stroke-linecap="round" stroke-linejoin="round">
          <g id="发布房源/快速录入已添加的房产" transform="translate(-255.000000, -192.000000)" stroke="#FFFFFF" stroke-width="2">
              <g id="矩形" transform="translate(24.000000, 155.000000)">
                  <g id="Group-6" transform="translate(223.000000, 30.000000)">
                      <polyline id="Path" points="9 11.725 12.125 15.475 18.375 8.6"></polyline>
                  </g>
              </g>
          </g>
      </g>
  </svg>
  <svg width="16px" height="16px" viewBox="0 0 16 16" version="1.1" y="180">
      <g id="Page-1" stroke="none" stroke-width="1" fill="none" fill-rule="evenodd">
          <g id="Artboard" transform="translate(-361.000000, -210.000000)">
              <g id="icon/Cell/提醒" transform="translate(361.000000, 210.000000)">
                  <g id="icon/进入" stroke-width="1">
                      <g transform="translate(8.000000, 8.000000) rotate(-90.000000) translate(-8.000000, -8.000000) ">
                          <mask id="mask-2" fill="white">
                              <use xlink:href="#path-1"></use>
                          </mask>
                          <g id="Mask" transform="translate(8.000000, 8.000000) rotate(-450.000000) translate(-8.000000, -8.000000) "></g>
                          <g id="Grid" mask="url(#mask-2)"></g>
                      </g>
                  </g>
                  <path d="M8,1 C11.866,1 15,4.134 15,8 C15,11.866 11.866,15 8,15 C4.134,15 1,11.866 1,8 C1,4.134 4.134,1 8,1 Z M8.75,8.07978723 L8.75,4.88297872 C8.75,4.59219713 8.67857214,4.37234117 8.53571429,4.22340426 C8.39285643,4.07446734 8.21153956,4 7.99175824,4 C7.77197692,4 7.59340728,4.07624037 7.45604396,4.2287234 C7.31868063,4.38120644 7.25,4.59928936 7.25,4.88297872 L7.25,8.03723404 C7.25,8.32446952 7.31868063,8.54077941 7.45604396,8.68617021 C7.59340728,8.83156101 7.77197692,8.90425532 7.99175824,8.90425532 C8.21153956,8.90425532 8.39285643,8.83156101 8.53571429,8.68617021 C8.67857214,8.54077941 8.75,8.33865378 8.75,8.07978723 Z M8.00824176,10 C7.79944951,10 7.62087986,10.0655424 7.47252747,10.1966292 C7.32417508,10.327716 7.25,10.5131074 7.25,10.752809 C7.25,10.9700385 7.32600657,11.1488757 7.47802198,11.2893258 C7.63003739,11.429776 7.80677555,11.5 8.00824176,11.5 C8.20238192,11.5 8.37454137,11.4363302 8.52472527,11.3089888 C8.67490918,11.1816473 8.75,10.9962559 8.75,10.752809 C8.75,10.5168528 8.67674066,10.3323977 8.53021978,10.1994382 C8.3836989,10.0664787 8.20970797,10 8.00824176,10 Z" id="Combined-Shape" fill="#CCCCCC"></path>
              </g>
          </g>
      </g>
  </svg>
  <svg width="143px" height="38px" viewBox="0 0 143 38" version="1.1" y="200">
			<defs>
					<path d="M15,0 L121,0 C129.284271,-1.52179594e-15 136,6.71572875 136,15 L136,15 C136,23.2842712 129.284271,30 121,30 L15,30 C6.71572875,30 1.01453063e-15,23.2842712 0,15 L0,15 C-1.01453063e-15,6.71572875 6.71572875,1.52179594e-15 15,0 Z" id="path-1"></path>
					<linearGradient x1="25.4842806%" y1="39.3132314%" x2="60.6867686%" y2="25.4842806%" id="linearGradient-3">
							<stop stop-color="#FBE1E2" offset="0%"></stop>
							<stop stop-color="#F6BFC1" offset="100%"></stop>
					</linearGradient>
					<linearGradient x1="50%" y1="0%" x2="50%" y2="100%" id="linearGradient-4">
							<stop stop-color="#F09CA2" offset="0%"></stop>
							<stop stop-color="#E1606E" offset="100%"></stop>
					</linearGradient>
					<rect id="path-5" x="0.533506611" y="0.405268201" width="18.8245614" height="24.42" rx="1.3824"></rect>
					<linearGradient x1="6.1103437%" y1="56.5703553%" x2="94.427962%" y2="56.5703553%" id="linearGradient-7">
							<stop stop-color="#FF8D96" offset="0%"></stop>
							<stop stop-color="#E6606B" offset="100%"></stop>
					</linearGradient>
					<path d="M-1.27692666,-3.88809465 L20.144126,-3.88809465 L20.144126,7.28932471 C18.4114671,10.8377118 14.8412917,12.6119054 9.43359966,12.6119054 C4.02590762,12.6119054 0.455732184,10.8377118 -1.27692666,7.28932471 L-1.27692666,-3.88809465 Z" id="path-8"></path>
					<filter x="-30.3%" y="-33.3%" width="160.7%" height="178.8%" filterUnits="objectBoundingBox" id="filter-9">
							<feOffset dx="0" dy="1" in="SourceAlpha" result="shadowOffsetOuter1"></feOffset>
							<feGaussianBlur stdDeviation="2" in="shadowOffsetOuter1" result="shadowBlurOuter1"></feGaussianBlur>
							<feColorMatrix values="0 0 0 0 0.8   0 0 0 0 0.321568627   0 0 0 0 0.352941176  0 0 0 0.8 0" type="matrix" in="shadowBlurOuter1"></feColorMatrix>
					</filter>
					<linearGradient x1="90.1780387%" y1="68.4361306%" x2="10.8860691%" y2="38.2902405%" id="linearGradient-10">
							<stop stop-color="#EEC9AD" offset="0%"></stop>
							<stop stop-color="#F6E3D3" offset="100%"></stop>
					</linearGradient>
					<linearGradient x1="50%" y1="0%" x2="50%" y2="100%" id="linearGradient-11">
							<stop stop-color="#F0727E" offset="0%"></stop>
							<stop stop-color="#E1606E" offset="100%"></stop>
					</linearGradient>
					<rect id="path-12" x="0" y="0" width="22.1052632" height="28.9756098" rx="1.2288"></rect>
					<path d="M-1.26315789,-5.35418876 L23.3684211,-5.35418876 L23.3684211,7.873807 C21.3760762,12.0731707 17.2708131,14.1728526 11.0526316,14.1728526 C4.83445007,14.1728526 0.729186913,12.0731707 -1.26315789,7.873807 L-1.26315789,-5.35418876 Z" id="path-14"></path>
					<filter x="-26.4%" y="-28.2%" width="152.8%" height="166.6%" filterUnits="objectBoundingBox" id="filter-15">
							<feOffset dx="0" dy="1" in="SourceAlpha" result="shadowOffsetOuter1"></feOffset>
							<feGaussianBlur stdDeviation="2" in="shadowOffsetOuter1" result="shadowBlurOuter1"></feGaussianBlur>
							<feColorMatrix values="0 0 0 0 0.8   0 0 0 0 0.321568627   0 0 0 0 0.352941176  0 0 0 0.8 0" type="matrix" in="shadowBlurOuter1"></feColorMatrix>
					</filter>
					<linearGradient x1="90.1780387%" y1="68.4361306%" x2="10.8860691%" y2="38.2902405%" id="linearGradient-16">
							<stop stop-color="#FFD194" offset="0%"></stop>
							<stop stop-color="#FFE79A" offset="100%"></stop>
					</linearGradient>
					<linearGradient x1="90.1780387%" y1="68.4361306%" x2="10.8860691%" y2="38.2902405%" id="linearGradient-17">
							<stop stop-color="#E36370" offset="0%"></stop>
							<stop stop-color="#F57B85" offset="100%"></stop>
					</linearGradient>
			</defs>
			<g id="Page-101" stroke="none" stroke-width="1" fill="none" fill-rule="evenodd">
					<g id="2.1入口" transform="translate(-208.000000, -350.000000)">
							<g id="编组-2" transform="translate(207.000000, 350.000000)">
									<g id="编组" transform="translate(0.000000, -0.000000)">
											<g id="路径-2" transform="translate(8.000000, 8.000000)">
													<mask id="mask-2" fill="white">
															<use xlink:href="#path-1"></use>
													</mask>
													<use id="蒙版" fill="#FCF0F0" xlink:href="#path-1"></use>
													<path d="M49,32.5294118 C90.3333333,23.1960784 120,19.5294118 138,21.5294118 C156,23.5294118 153.666667,28.8627451 131,37.5294118 L49,32.5294118 Z" fill="url(#linearGradient-3)" opacity="0.147438" mask="url(#mask-2)"></path>
													<path d="M0,1.52941176 C41.3333333,-7.80392157 71,-11.4705882 89,-9.47058824 C107,-7.47058824 104.666667,-2.1372549 82,6.52941176 L0,1.52941176 Z" id="路径-2复制" fill="url(#linearGradient-3)" opacity="0.147438" mask="url(#mask-2)" transform="translate(50.475410, -1.735294) scale(-1, -1) translate(-50.475410, 1.735294) "></path>
													<text id="委托卖房领福利" mask="url(#mask-2)" font-family="PingFangSC-Regular, PingFang SC" font-size="12" font-weight="normal" fill="#F37984">
															<tspan x="33" y="22">委托卖房领福利</tspan>
													</text>
													<polygon id="三角形" fill="#F37984" mask="url(#mask-2)" transform="translate(124.500000, 15.000000) rotate(90.000000) translate(-124.500000, -15.000000) " points="124.5 13.5 127.5 16.5 121.5 16.5"></polygon>
											</g>
											<g id="Group-12" transform="translate(0.000000, 5.000000)">
													<g id="Rectangle-Copy-28" opacity="0.598051525" transform="translate(14.477168, 16.076518) rotate(-25.000000) translate(-14.477168, -16.076518) translate(4.608747, 3.600908)">
															<mask id="mask-6" fill="white">
																	<use xlink:href="#path-5"></use>
															</mask>
															<use id="Mask" fill="url(#linearGradient-4)" xlink:href="#path-5"></use>
															<g id="Rectangle" mask="url(#mask-6)">
																	<use fill="black" fill-opacity="1" filter="url(#filter-9)" xlink:href="#path-8"></use>
																	<use fill="url(#linearGradient-7)" fill-rule="evenodd" xlink:href="#path-8"></use>
															</g>
															<path d="M-1.341321,-4.51518584 L-1.35686534,4.72755303 C0.337988813,9.23980784 3.81305258,11.4848142 9.11962576,11.4848142 C14.4261989,11.4848142 17.9012627,9.23980784 19.5801521,4.81545932 L19.5801521,-4.51518584 L-1.341321,-4.51518584 Z" id="Rectangle-Copy-26" stroke="#FFAEA5" stroke-width="0.5" mask="url(#mask-6)"></path>
															<g id="Group-42" mask="url(#mask-6)">
																	<g transform="translate(5.650141, 9.335422)">
																			<ellipse id="Oval" fill="url(#linearGradient-10)" cx="3.57017544" cy="3.3" rx="3.57017544" ry="3.3"></ellipse>
																			<polygon id="Rectangle" fill="#E56572" transform="translate(3.570175, 3.300000) rotate(45.000000) translate(-3.570175, -3.300000) " points="2.67642544 2.40625 3.74779454 3.1223809 4.46392544 4.19375 3.39255634 3.4776191"></polygon>
																	</g>
															</g>
													</g>
													<g id="Rectangle-Copy-27" transform="translate(7.375940, 4.024390)">
															<mask id="mask-13" fill="white">
																	<use xlink:href="#path-12"></use>
															</mask>
															<use id="Mask" fill="url(#linearGradient-11)" xlink:href="#path-12"></use>
															<g id="Rectangle" mask="url(#mask-13)">
																	<use fill="black" fill-opacity="1" filter="url(#filter-15)" xlink:href="#path-14"></use>
																	<use fill="url(#linearGradient-7)" fill-rule="evenodd" xlink:href="#path-14"></use>
															</g>
															<path d="M-1.01349451,-6.67895016 L-1.02830905,4.32362299 C0.927193594,9.68184558 4.93719299,12.3480912 11.0526316,12.3480912 C17.1680702,12.3480912 21.1780696,9.68184558 23.1184211,4.40933192 L23.1184211,-6.67895016 L-1.01349451,-6.67895016 Z" id="Rectangle-Copy-26" stroke="#FFAEA5" stroke-width="0.5" mask="url(#mask-13)"></path>
															<g id="Group-42" mask="url(#mask-13)">
																	<g transform="translate(7.263158, 10.393425)">
																			<ellipse id="Oval" fill="url(#linearGradient-10)" cx="3.78947368" cy="3.77942736" rx="3.78947368" ry="3.77942736"></ellipse>
																			<polygon id="Rectangle" fill="#E56572" transform="translate(3.789474, 3.779427) rotate(45.000000) translate(-3.789474, -3.779427) " points="2.83266657 2.82262024 4.73684211 2.83205894 4.7462808 4.73623447 2.84210526 4.72679578"></polygon>
																	</g>
															</g>
													</g>
											</g>
											<ellipse id="Oval" fill="url(#linearGradient-16)" opacity="0.801707" cx="29.8285714" cy="2.73913043" rx="2.82857143" ry="2.73913043"></ellipse>
											<ellipse id="Oval-Copy-7" fill="url(#linearGradient-10)" cx="137.828571" cy="4.77075106" rx="1.8285715" ry="1.77075106"></ellipse>
											<circle id="Oval-Copy-8" fill="url(#linearGradient-17)" opacity="0.47639974" cx="131" cy="11" r="4"></circle>
									</g>
							</g>
					</g>
			</g>
	</svg>
</svg>
