<svg xmlns="http://www.w3.org/2000/svg" y="378" width="32" height="32"><path fill="#101d37" d="M15.999 28.701c-.58 0-1.139-.183-1.609-.523h-.045l-.287-.278C10.364 24.288 3.979 17.8 2.717 14.92.941 10.867 2.579 6.01 6.37 4.092a7.211 7.211 0 013.287-.793c2.541 0 4.928 1.357 6.342 3.574 1.416-2.217 3.803-3.574 6.343-3.574 1.143 0 2.249.267 3.288.794 3.79 1.917 5.429 6.775 3.652 10.828-1.266 2.887-7.653 9.375-11.348 12.985a2.769 2.769 0 01-1.935.795zm-.859-2.477l.288.279a.811.811 0 00.572.244.819.819 0 00.572-.242c6.022-5.884 10.106-10.51 10.922-12.37 1.368-3.119.137-6.842-2.745-8.3a5.273 5.273 0 00-2.405-.583c-1.966 0-3.817 1.12-4.851 2.929l-.018.074-.102.131a1.645 1.645 0 01-1.372.756c-.501 0-.961-.226-1.272-.615l-.097-.069-.09-.219c-1.027-1.843-2.896-2.987-4.884-2.987-.833 0-1.642.196-2.404.582-2.881 1.458-4.113 5.182-2.746 8.301.799 1.826 4.764 6.333 10.632 12.089z"/></svg>