<svg xmlns="http://www.w3.org/2000/svg" width="32" height="32"><path fill="#245BF4" d="M29.534 15.351c.311 0 .466-.156.466-.468v-.426c0-.33-.159-.468-.509-.468h-1.356v-.383h-.572v.383h-1.399c-.311 0-.466.156-.466.468v1.234c.014.922 0 2.66 0 2.66h.509v-2.086h.911c0 .716-.039 1.334-.746 1.83l.445.298c.551-.454.667-.88.766-1.277h1.632c.195 0 .276.071.276.213v.341c0 .17-.091.255-.381.255h-.928v.383h1.119c.397 0 .699-.23.699-.596v-.468c0-.329-.253-.511-.572-.511h-1.801c.014-.142.021-.298.021-.468H30v-.383h-1.865v-.342h-.572v.342h-1.356v-.532l3.327.001zm-3.327-.766c0-.156.077-.234.233-.234h2.818c.155 0 .233.071.233.213v.234c0 .114-.078.17-.233.17h-3.052l.001-.383zm-15.589-.258a.156.156 0 01.155-.154h2.765c.086 0 .155.07.155.155v2.348h.488V14.12a.383.383 0 00-.381-.383h-3.312a.381.381 0 00-.381.383v2.557h.488l.023-2.35zm1.95 2.369c-.209-.288-.209-.365-.209-.365l.018-.616v-.895h-.488v.874c.014.682-.135 1.172-.446 1.471-.256.282-.754.502-1.443.709l.15.478c1.086-.341 1.775-.776 2.015-1.358.444.6 1.121 1.048 2.028 1.347l.191-.48c-.79-.174-1.395-.562-1.816-1.165zm2.906-.622a.156.156 0 01.155-.154h3.507c.086 0 .155.07.155.155v.601h.463v-.825a.367.367 0 00-.367-.368H15.38a.367.367 0 00-.367.368v.825h.437l.024-.602zm1.639-1.296h-1.825v.384h4.223v-.384h-1.867v-.448h2.101v-.384h-2.101v-.341h-.531v.341h-2.08v.384h2.08v.448zm1.792 2.958v-1.159a.322.322 0 00-.321-.323h-2.412a.322.322 0 00-.321.323v.46c-.018.425-.262.664-.945.851l.13.467c.897-.242 1.338-.653 1.324-1.233v-.277c0-.142.049-.213.149-.213h1.696c.127 0 .191.071.191.213v.989c-.014.355.17.526.552.512h.902v-.461h-.753c-.142 0-.206-.049-.192-.149zm3.965-1.507h-.943v-.484h.943v-.358h-2.473v.358h1.027v.484h-1.027v.337h1.027v1.242c0 .084-.049.126-.147.126h-.199v.379h.43c.245 0 .419-.153.419-.379v-1.368h.943v-.337zm-.083-2.105h-.888v-.518h-.531v.518h-.888v.337h2.306v-.337h.001zm-1.845 1.158h.482l-.21-.716h-.461l.189.716zm1.383 0l.252-.716h-.503l-.231.716h.482zm.262 1.494h-.398l.168 1.124h.419l-.189-1.124zm-1.907 0l-.189 1.124h.419l.168-1.124h-.398zm2.924-2.189c0-.126.07-.203.21-.232.056-.014 1.055-.196 1.279-.253l-.105-.421c-.587.155-1.09.256-1.509.295-.245.022-.356.189-.356.442v1.874a4.97 4.97 0 01-.359 1.868l.464.195c.252-.632.377-1.34.377-2.126v-.61h.65v2.716h.503v-2.716h.398v-.4h-1.551l-.001-.632z"/><path fill-rule="evenodd" clip-rule="evenodd" fill="#245BF4" d="M3.247 12.7h3.507c.854 0 1.547.693 1.547 1.547v3.507c0 .854-.693 1.547-1.547 1.547H3.247A1.547 1.547 0 011.7 17.754v-3.507c0-.855.692-1.547 1.547-1.547z"/><path fill="#FFF" d="M7.125 15.459l-1.616-1.275a.819.819 0 00-1.018 0l-1.616 1.275a.31.31 0 00-.052.435.307.307 0 00.433.052l1.616-1.275a.206.206 0 01.257 0l1.616 1.275a.307.307 0 00.433-.053.31.31 0 00-.053-.434zm-.52.809a.308.308 0 00-.386.204c-.167.54-.657.902-1.219.902a1.271 1.271 0 01-1.218-.9.308.308 0 10-.588.185A1.884 1.884 0 005 17.994c.834 0 1.56-.538 1.807-1.337a.31.31 0 00-.202-.389z"/></svg>